<svg id="visual" viewBox="0 0 1920 1080" width="1920" height="1080" xmlns="http://www.w3.org/2000/svg" xmlns:xlink="http://www.w3.org/1999/xlink" version="1.1"><rect x="0" y="0" width="1920" height="1080" fill="#5e5e5e"></rect><path d="M0 492L45.7 563.8C91.3 635.7 182.7 779.3 274.2 778.2C365.7 777 457.3 631 548.8 546C640.3 461 731.7 437 823 526.5C914.3 616 1005.7 819 1097 897.7C1188.3 976.3 1279.7 930.7 1371.2 892C1462.7 853.3 1554.3 821.7 1645.8 764.3C1737.3 707 1828.7 624 1874.3 582.5L1920 541L1920 1081L1874.3 1081C1828.7 1081 1737.3 1081 1645.8 1081C1554.3 1081 1462.7 1081 1371.2 1081C1279.7 1081 1188.3 1081 1097 1081C1005.7 1081 914.3 1081 823 1081C731.7 1081 640.3 1081 548.8 1081C457.3 1081 365.7 1081 274.2 1081C182.7 1081 91.3 1081 45.7 1081L0 1081Z" fill="#a2e6e6" stroke-linecap="round" stroke-linejoin="miter"></path></svg>